# xmcd
#
# Track frame offsets: 
#        150
#        13450
#        24937
#        37862
#        51577
#        62142
#        73790
#        84582
#        94195
#        106762
#        118930
#        128012
#        141472
#        152387
#        164887
#        176810
#        189907
#        200120
#        211862
#        222535
#        233907
#        245212
#        258265
#        268815
#        283482
#        295477
#
# Disc length: 4093 seconds
#
# Revision: 3
# Processed by: cddbd v1.5.2PL0 Copyright (c) Steve Scherf et al.
# Submitted via: ExactAudioCopyFreeDBPlugin 1.0
#
DISCID=a40ffb1a
DTITLE=Various Artist - GSCD79 - British Soul Volume 2
DYEAR=1900
DGENRE=Northern Soul
TTITLE0=Timi Yuro - It'll Never Be Over For Me
TTITLE1=Steve Aldo - You're Absolutely Right
TTITLE2=John Andrews - It's Just Love
TTITLE3=Long John Baldry - The Drifter
TTITLE4=Bobby Bennett - You're Ready Now
TTITLE5=Elkie Brooks - He's Gotta Love Me
TTITLE6=Jack Hammer - What Greater Love
TTITLE7=Samantha Jones - Surrounded By A Ray Of Sunshine
TTITLE8=Karol Keyes - One In A Million
TTITLE9=Koobas - Sweet Music
TTITLE10=Mike Patto - Can't Stop Talking 'Bout' My Baby
TTITLE11=Helen Shapiro - He Knows How To Love Me
TTITLE12=Mike Vikers - On The Brink
TTITLE13=Barry Benson - Stay A Little While
TTITLE14=PJ Proby - That's The Tune
TTITLE15=Dany Chandelle - Lying Awake
TTITLE16=Samantha Jones - And Suddenly
TTITLE17=Soulmates - Too Late to Say You're Sorry
TTITLE18=West Five - Just Like Romeo and Juliet
TTITLE19=Barry St John - Everything I Touch Turns To Tears
TTITLE20=Kenny Lynch - My Own Two Feet
TTITLE21=Spice - What About The Music
TTITLE22=Mark Loyd - When I'm Gonna Find Her
TTITLE23=Gene Latter - Too Busy Thinking About My Baby
TTITLE24=Jimmy James - Marble and Iron
TTITLE25=Carl Douglas - Sell My Soul To The Devil
EXTD=
EXTT0=
EXTT1=
EXTT2=
EXTT3=
EXTT4=
EXTT5=
EXTT6=
EXTT7=
EXTT8=
EXTT9=
EXTT10=
EXTT11=
EXTT12=
EXTT13=
EXTT14=
EXTT15=
EXTT16=
EXTT17=
EXTT18=
EXTT19=
EXTT20=
EXTT21=
EXTT22=
EXTT23=
EXTT24=
EXTT25=
PLAYORDER=
